<?xml version="1.0" encoding="UTF-8"?>
<svg version="1.1" xmlns="http://www.w3.org/2000/svg" width="512" height="512">
<path d="M0 0 C10.89251494 9.58853137 21.02951878 19.56873824 30 31 C30.4954834 31.62438965 30.9909668 32.2487793 31.50146484 32.89208984 C49.26817704 55.33169072 63.3564175 79.99170014 73 107 C73.30776367 107.85883789 73.61552734 108.71767578 73.93261719 109.60253906 C83.50173361 136.79002866 87.42451649 164.41613281 87.3125 193.125 C87.31034485 194.11956207 87.3081897 195.11412415 87.30596924 196.13882446 C87.25562211 210.615952 86.91768591 224.77303064 84 239 C83.69400879 240.53696533 83.69400879 240.53696533 83.38183594 242.10498047 C78.99656504 263.65791669 72.61371532 284.20437307 63 304 C62.60329102 304.81936035 62.20658203 305.6387207 61.79785156 306.48291016 C42.89096503 345.05207861 14.75498296 377.86617329 -20 403 C-20.61423828 403.4444043 -21.22847656 403.88880859 -21.86132812 404.34667969 C-50.7842413 424.99910013 -93.59981023 447 -130 447 C-130 387.93 -130 328.86 -130 268 C-110.2 268 -90.4 268 -70 268 C-69.34 262.39 -68.68 256.78 -68 251 C-67.38705627 246.69578345 -66.75878374 242.40056017 -66.08984375 238.10546875 C-65.91747696 236.98481522 -65.74511017 235.86416168 -65.56752014 234.70954895 C-65.20848607 232.37962922 -64.84800545 230.04993194 -64.48608398 227.72045898 C-63.93159944 224.14949953 -63.3824742 220.57774403 -62.83398438 217.00585938 C-62.4820819 214.72651445 -62.12987958 212.4472158 -61.77734375 210.16796875 C-61.53201149 208.57277657 -61.53201149 208.57277657 -61.28172302 206.94535828 C-61.12808792 205.95945206 -60.97445282 204.97354584 -60.81616211 203.95776367 C-60.68229599 203.09414719 -60.54842987 202.2305307 -60.4105072 201.34074402 C-60.0364863 199.20804774 -59.525149 197.100596 -59 195 C-82.43 195 -105.86 195 -130 195 C-130.061875 182.50125 -130.061875 182.50125 -130.125 169.75 C-130.14320801 167.14448242 -130.16141602 164.53896484 -130.18017578 161.85449219 C-130.18602582 159.75195521 -130.19112016 157.64941594 -130.1953125 155.546875 C-130.20554443 154.48549316 -130.21577637 153.42411133 -130.22631836 152.33056641 C-130.22927261 139.44413899 -128.68060753 127.14199043 -120.25 116.8671875 C-110.9752789 107.94026844 -99.02258986 105.82644023 -86.6640625 105.90234375 C-85.49363403 105.90385437 -85.49363403 105.90385437 -84.29956055 105.90539551 C-81.40802524 105.91059459 -78.51651101 105.92455567 -75.625 105.9375 C-69.14875 105.958125 -62.6725 105.97875 -56 106 C-56 85.54 -56 65.08 -56 44 C-119.62245925 36.32624639 -119.62245925 36.32624639 -177.05859375 60.34375 C-195.19792455 75.84143068 -204.17834577 98.76499464 -207 122 C-207.3134842 127.71337502 -207.37173451 133.41980657 -207.4140625 139.140625 C-207.4328159 140.76016174 -207.45239225 142.37968914 -207.4727478 143.99920654 C-207.52363514 148.22074829 -207.5634903 152.44232157 -207.60089111 156.66400146 C-207.64831904 161.75127669 -207.70972723 166.83840084 -207.76873779 171.92555237 C-207.85641958 179.61697245 -207.92656234 187.30837142 -208 195 C-229.45 195 -250.9 195 -273 195 C-273 219.09 -273 243.18 -273 268 C-251.55 268 -230.1 268 -208 268 C-208 327.07 -208 386.14 -208 447 C-262.75735387 440.91584957 -311.60841324 412.27539547 -351 375 C-351.680625 374.36191406 -352.36125 373.72382813 -353.0625 373.06640625 C-357.30968121 368.96669661 -360.99949742 364.4641592 -364.69140625 359.86328125 C-366.15409348 358.0491531 -367.6387174 356.25231811 -369.15234375 354.48046875 C-403.10447394 314.51150536 -424.93425278 258.51249956 -425.203125 205.98828125 C-425.21018463 205.06563477 -425.21724426 204.14298828 -425.22451782 203.19238281 C-425.45148416 164.82983053 -425.45148416 164.82983053 -422 148 C-421.79600586 146.97535645 -421.59201172 145.95071289 -421.38183594 144.89501953 C-414.01640612 108.6950577 -400.07103448 73.81755084 -378 44 C-377.58927246 43.43909668 -377.17854492 42.87819336 -376.75537109 42.30029297 C-363.81390674 24.70970006 -349.19718453 8.5021138 -332 -5 C-330.93106658 -5.86958999 -329.86340867 -6.74074968 -328.796875 -7.61328125 C-249.73103641 -71.78133086 -135.27004934 -80.62190522 0 0 Z " fill="#000000" transform="translate(425,64)"/>
</svg>
