<?xml version="1.0" encoding="UTF-8"?>
<svg version="1.1" xmlns="http://www.w3.org/2000/svg" width="344" height="346">
<path d="M0 0 C0.77129242 -0.00988449 1.54258484 -0.01976898 2.33724976 -0.029953 C47.51077708 -0.48905774 89.15341851 10.99543756 123.8125 41.23828125 C124.31587891 41.6760791 124.81925781 42.11387695 125.33789062 42.56494141 C132.94927472 49.23506003 139.65839729 56.1695688 145.8125 64.23828125 C146.54984375 65.1715625 147.2871875 66.10484375 148.046875 67.06640625 C177.28729914 104.77647049 187.32963662 150.9541804 182.1875 197.94921875 C177.63366156 230.61010199 162.49490593 261.60766522 140.8125 286.23828125 C139.95011719 287.2334375 139.08773438 288.22859375 138.19921875 289.25390625 C132.26691385 295.98938978 125.95481332 301.76948068 118.8125 307.23828125 C117.41064453 308.34623047 117.41064453 308.34623047 115.98046875 309.4765625 C100.15666973 321.74159547 82.72792353 330.9029793 63.6875 337.05078125 C62.40153931 337.4677124 62.40153931 337.4677124 61.08959961 337.89306641 C58.34479476 338.74083675 55.5898925 339.50428921 52.8125 340.23828125 C51.78801758 340.51784668 50.76353516 340.79741211 49.70800781 341.08544922 C38.31957834 343.79475433 26.95268189 343.7621666 15.30029297 343.73925781 C11.8464677 343.73829076 8.39490974 343.77992413 4.94140625 343.82421875 C-13.82995967 343.92573226 -31.83557815 341.32702291 -49.4375 334.55078125 C-50.77687622 334.04659668 -50.77687622 334.04659668 -52.14331055 333.53222656 C-71.29488464 326.0959725 -89.1089163 315.36576283 -104.07421875 301.23046875 C-106.00883632 299.40670727 -108.00650095 297.7341043 -110.0625 296.05078125 C-139.10941819 270.50349176 -157.49471152 229.27402989 -161.1875 191.23828125 C-161.34291496 188.47635335 -161.39650461 185.71901974 -161.42578125 182.953125 C-161.43566574 182.18324753 -161.44555023 181.41337006 -161.45573425 180.62016296 C-161.91548193 135.48519303 -150.40063998 93.86332153 -120.1875 59.23828125 C-119.53080322 58.48321289 -119.53080322 58.48321289 -118.86083984 57.71289062 C-112.19072122 50.10150653 -105.25621245 43.39238396 -97.1875 37.23828125 C-96.25421875 36.5009375 -95.3209375 35.76359375 -94.359375 35.00390625 C-67.97105969 14.54237833 -33.70037071 0.35416434 0 0 Z M-80.1875 68.23828125 C-85.33040885 75.43543982 -87.20138082 81.33477614 -86.1875 90.23828125 C-83.65487323 98.18823075 -79.03811344 103.6917092 -71.6875 107.55078125 C-64.31099765 109.5793194 -57.80424535 109.84089892 -51.01171875 106.01171875 C-45.57381625 102.18163299 -41.32588826 97.65344603 -39.1875 91.23828125 C-38.29771407 82.88700469 -39.11052911 76.09707366 -44.1875 69.23828125 C-49.41716662 64.15622618 -54.67815929 61.20439011 -62 60.92578125 C-69.11658192 61.08463352 -75.08920877 63.13999002 -80.1875 68.23828125 Z M43.8125 129.23828125 C43.03132813 129.66238281 42.25015625 130.08648437 41.4453125 130.5234375 C35.5871064 134.06400314 30.86058232 138.72318272 26.8125 144.23828125 C26.8125 144.89828125 26.8125 145.55828125 26.8125 146.23828125 C26.1525 146.23828125 25.4925 146.23828125 24.8125 146.23828125 C24.8125 140.29828125 24.8125 134.35828125 24.8125 128.23828125 C11.6125 128.23828125 -1.5875 128.23828125 -15.1875 128.23828125 C-15.1875 172.45828125 -15.1875 216.67828125 -15.1875 262.23828125 C-1.6575 262.23828125 11.8725 262.23828125 25.8125 262.23828125 C25.84988281 256.90285156 25.88726562 251.56742187 25.92578125 246.0703125 C25.95609998 242.66598492 25.98727325 239.26170716 26.02148438 235.85742188 C26.07556279 230.46820768 26.12668068 225.07909203 26.15893555 219.68969727 C26.18517478 215.3387888 26.22571831 210.98821625 26.27568626 206.63751793 C26.29221693 204.9876089 26.30381626 203.33764195 26.31011391 201.68766212 C26.41907283 175.73581845 26.41907283 175.73581845 33.3359375 167.60546875 C38.67083796 162.6657461 43.75609965 161.88501815 50.9375 161.80078125 C51.61852783 161.79054932 52.29955566 161.78031738 53.0012207 161.76977539 C57.66959341 161.85099905 60.77475976 162.97978263 64.8125 165.23828125 C65.4725 165.23828125 66.1325 165.23828125 66.8125 165.23828125 C71.34696635 173.60960375 72.94163051 181.67781361 73.01782227 191.17138672 C73.02772186 191.94279495 73.03762146 192.71420319 73.04782104 193.50898743 C73.07923314 196.04111739 73.10411261 198.57326607 73.12890625 201.10546875 C73.14949333 202.86809762 73.17049025 204.63072174 73.19187927 206.39334106 C73.24691883 211.01941066 73.29640757 215.64552346 73.34472656 220.27166748 C73.40393553 225.82931211 73.47006328 231.38687823 73.53502655 236.94445801 C73.63280795 245.37568424 73.72181991 253.80696218 73.8125 262.23828125 C87.3425 262.23828125 100.8725 262.23828125 114.8125 262.23828125 C114.87081903 247.72364044 114.87081903 247.72364044 114.91015625 233.20898438 C114.92204104 227.27576044 114.93599103 221.34259911 114.96337891 215.40942383 C114.98535516 210.61776996 114.99711998 205.82618339 115.00225449 201.03448296 C115.00590633 199.22036113 115.01303504 197.40624234 115.02396011 195.59214973 C115.52055554 164.72247216 115.52055554 164.72247216 101.8125 138.23828125 C101.23886719 137.62597656 100.66523438 137.01367188 100.07421875 136.3828125 C88.90297744 125.53537529 74.91495961 124.76474059 60.23046875 124.9609375 C54.13668596 125.17020631 49.16029548 126.24761514 43.8125 129.23828125 Z M-83.1875 128.23828125 C-83.1875 172.45828125 -83.1875 216.67828125 -83.1875 262.23828125 C-69.6575 262.23828125 -56.1275 262.23828125 -42.1875 262.23828125 C-42.1875 218.01828125 -42.1875 173.79828125 -42.1875 128.23828125 C-55.7175 128.23828125 -69.2475 128.23828125 -83.1875 128.23828125 Z " fill="#000000" transform="translate(161.1875,2.76171875)"/>
</svg>
